<?xml version="1.0" encoding="UTF-8" standalone="no"?>
<!DOCTYPE svg PUBLIC "-//W3C//DTD SVG 1.1//EN"
 "http://www.w3.org/Graphics/SVG/1.1/DTD/svg11.dtd">
<!-- Generated by graphviz version 2.47.3 (20210619.1520)
 -->
<!-- Pages: 1 -->
<svg width="576pt" height="131pt"
 viewBox="0.00 0.00 576.00 130.77" xmlns="http://www.w3.org/2000/svg" xmlns:xlink="http://www.w3.org/1999/xlink">
<g id="graph0" class="graph" transform="scale(0.31 0.31) rotate(0) translate(4 412.28)">
<polygon fill="white" stroke="transparent" points="-4,4 -4,-412.28 1829.56,-412.28 1829.56,4 -4,4"/>
<!-- Initial -->
<g id="node1" class="node">
<title>Initial</title>
<ellipse fill="black" stroke="black" cx="1.8" cy="-370.28" rx="1.8" ry="1.8"/>
</g>
<!-- 0 -->
<g id="node2" class="node">
<title>0</title>
<ellipse fill="none" stroke="black" cx="58.6" cy="-370.28" rx="18" ry="18"/>
<text text-anchor="middle" x="58.6" y="-366.58" font-family="Times New Roman,serif" font-size="14.00">0</text>
</g>
<!-- Initial&#45;&gt;0 -->
<g id="edge1" class="edge">
<title>Initial&#45;&gt;0</title>
<path fill="none" stroke="black" d="M3.75,-370.28C7.25,-370.28 19.84,-370.28 31.96,-370.28"/>
<polygon fill="black" stroke="black" points="32.08,-373.25 40.58,-370.28 32.08,-367.3 32.08,-373.25"/>
</g>
<!-- 1 -->
<g id="node3" class="node">
<title>1</title>
<ellipse fill="none" stroke="black" cx="1438.08" cy="-266.28" rx="18" ry="18"/>
<text text-anchor="middle" x="1438.08" y="-262.58" font-family="Times New Roman,serif" font-size="14.00">1</text>
</g>
<!-- 0&#45;&gt;1 -->
<g id="edge13" class="edge">
<title>0&#45;&gt;1</title>
<path fill="none" stroke="black" d="M75.54,-376.93C93.29,-383.72 122.99,-393.28 149.6,-393.28 149.6,-393.28 149.6,-393.28 1348.08,-393.28 1396.93,-393.28 1421.24,-329.47 1431.26,-292.31"/>
<polygon fill="black" stroke="black" points="1434.18,-292.91 1433.4,-283.94 1428.41,-291.44 1434.18,-292.91"/>
<text text-anchor="middle" x="760.6" y="-397.08" font-family="Times New Roman,serif" font-size="14.00"> a </text>
</g>
<!-- 2 -->
<g id="node14" class="node">
<title>2</title>
<ellipse fill="none" stroke="black" cx="150.6" cy="-347.28" rx="18" ry="18"/>
<text text-anchor="middle" x="150.6" y="-343.58" font-family="Times New Roman,serif" font-size="14.00">2</text>
</g>
<!-- 0&#45;&gt;2 -->
<g id="edge2" class="edge">
<title>0&#45;&gt;2</title>
<path fill="none" stroke="#ffff00" stroke-width="2.5" d="M73.48,-359.74C79.61,-355.68 87.13,-351.49 94.6,-349.28 103.9,-346.52 114.48,-345.63 123.85,-345.57"/>
<polygon fill="#ffff00" stroke="#ffff00" stroke-width="2.5" points="123.84,-348.54 132.4,-345.73 123.95,-342.6 123.84,-348.54"/>
<text text-anchor="middle" x="104.6" y="-368.08" font-family="Times New Roman,serif" font-size="14.00"> [1]</text>
<text text-anchor="middle" x="104.6" y="-353.08" font-family="Times New Roman,serif" font-size="14.00">b </text>
</g>
<!-- 1&#45;&gt;1 -->
<g id="edge14" class="edge">
<title>1&#45;&gt;1</title>
<path fill="none" stroke="black" d="M1434.12,-284.06C1433.45,-293.59 1434.77,-302.28 1438.08,-302.28 1440.3,-302.28 1441.62,-298.36 1442.05,-292.89"/>
<polygon fill="black" stroke="black" points="1445.03,-292.55 1442.03,-284.06 1439.08,-292.56 1445.03,-292.55"/>
<text text-anchor="middle" x="1438.08" y="-306.08" font-family="Times New Roman,serif" font-size="14.00"> a </text>
</g>
<!-- 1&#45;&gt;1 -->
<g id="edge15" class="edge">
<title>1&#45;&gt;1</title>
<path fill="none" stroke="black" d="M1431.7,-283.14C1427.83,-300.65 1429.96,-320.28 1438.08,-320.28 1444.87,-320.28 1447.47,-306.56 1445.87,-291.83"/>
<polygon fill="black" stroke="black" points="1448.76,-291.05 1444.45,-283.14 1442.89,-292.01 1448.76,-291.05"/>
<text text-anchor="middle" x="1438.08" y="-324.08" font-family="Times New Roman,serif" font-size="14.00"> b </text>
</g>
<!-- 10 -->
<g id="node4" class="node">
<title>10</title>
<ellipse fill="none" stroke="black" cx="806.1" cy="-258.28" rx="19.5" ry="19.5"/>
<text text-anchor="middle" x="806.1" y="-254.58" font-family="Times New Roman,serif" font-size="14.00">10</text>
</g>
<!-- 10&#45;&gt;1 -->
<g id="edge25" class="edge">
<title>10&#45;&gt;1</title>
<path fill="none" stroke="black" d="M825.73,-261.03C843.02,-263.34 869.49,-266.28 892.6,-266.28 892.6,-266.28 892.6,-266.28 1348.08,-266.28 1369.4,-266.28 1393.58,-266.28 1411.36,-266.28"/>
<polygon fill="black" stroke="black" points="1411.52,-269.25 1420.02,-266.28 1411.52,-263.3 1411.52,-269.25"/>
<text text-anchor="middle" x="1119.59" y="-270.08" font-family="Times New Roman,serif" font-size="14.00"> b </text>
</g>
<!-- 7 -->
<g id="node22" class="node">
<title>7</title>
<ellipse fill="none" stroke="black" cx="893.6" cy="-196.28" rx="18" ry="18"/>
<text text-anchor="middle" x="893.6" y="-192.58" font-family="Times New Roman,serif" font-size="14.00">7</text>
</g>
<!-- 10&#45;&gt;7 -->
<g id="edge24" class="edge">
<title>10&#45;&gt;7</title>
<path fill="none" stroke="black" d="M822.38,-247.19C836.09,-237.25 856.32,-222.58 871.55,-211.54"/>
<polygon fill="black" stroke="black" points="873.44,-213.84 878.58,-206.44 869.95,-209.02 873.44,-213.84"/>
<text text-anchor="middle" x="850.6" y="-235.08" font-family="Times New Roman,serif" font-size="14.00"> a </text>
</g>
<!-- 11 -->
<g id="node5" class="node">
<title>11</title>
<ellipse fill="none" stroke="black" cx="983.09" cy="-120.28" rx="19.5" ry="19.5"/>
<text text-anchor="middle" x="983.09" y="-116.58" font-family="Times New Roman,serif" font-size="14.00">11</text>
</g>
<!-- 16 -->
<g id="node10" class="node">
<title>16</title>
<ellipse fill="none" stroke="black" cx="1347.08" cy="-23.28" rx="19.5" ry="19.5"/>
<text text-anchor="middle" x="1347.08" y="-19.58" font-family="Times New Roman,serif" font-size="14.00">16</text>
</g>
<!-- 11&#45;&gt;16 -->
<g id="edge27" class="edge">
<title>11&#45;&gt;16</title>
<path fill="none" stroke="black" d="M990.09,-101.99C1001.23,-71.9 1028.17,-15.28 1073.09,-15.28 1073.09,-15.28 1073.09,-15.28 1257.08,-15.28 1277.96,-15.28 1301.47,-17.49 1319.09,-19.58"/>
<polygon fill="black" stroke="black" points="1318.91,-22.56 1327.72,-20.66 1319.65,-16.66 1318.91,-22.56"/>
<text text-anchor="middle" x="1165.09" y="-19.08" font-family="Times New Roman,serif" font-size="14.00"> b </text>
</g>
<!-- 11&#45;&gt;7 -->
<g id="edge26" class="edge">
<title>11&#45;&gt;7</title>
<path fill="none" stroke="black" d="M967.81,-132.69C953.28,-145.3 930.67,-164.94 914.42,-179.06"/>
<polygon fill="black" stroke="black" points="912.35,-176.91 907.89,-184.73 916.25,-181.41 912.35,-176.91"/>
<text text-anchor="middle" x="937.6" y="-169.08" font-family="Times New Roman,serif" font-size="14.00"> a </text>
</g>
<!-- 12 -->
<g id="node6" class="node">
<title>12</title>
<ellipse fill="none" stroke="black" cx="983.09" cy="-187.28" rx="19.5" ry="19.5"/>
<text text-anchor="middle" x="983.09" y="-183.58" font-family="Times New Roman,serif" font-size="14.00">12</text>
</g>
<!-- 12&#45;&gt;1 -->
<g id="edge28" class="edge">
<title>12&#45;&gt;1</title>
<path fill="none" stroke="black" d="M998.89,-198.92C1015.82,-211.04 1044.85,-228.28 1073.09,-228.28 1073.09,-228.28 1073.09,-228.28 1348.08,-228.28 1372.7,-228.28 1398.3,-240.73 1415.69,-251.38"/>
<polygon fill="black" stroke="black" points="1414.3,-254.02 1423.07,-256.09 1417.5,-249.01 1414.3,-254.02"/>
<text text-anchor="middle" x="1210.59" y="-232.08" font-family="Times New Roman,serif" font-size="14.00"> a </text>
</g>
<!-- 13 -->
<g id="node7" class="node">
<title>13</title>
<ellipse fill="none" stroke="black" cx="1074.09" cy="-130.28" rx="19.5" ry="19.5"/>
<text text-anchor="middle" x="1074.09" y="-126.58" font-family="Times New Roman,serif" font-size="14.00">13</text>
</g>
<!-- 12&#45;&gt;13 -->
<g id="edge29" class="edge">
<title>12&#45;&gt;13</title>
<path fill="none" stroke="black" d="M998.02,-174.05C1004.57,-168.2 1012.68,-161.49 1020.59,-156.28 1029.18,-150.63 1039.17,-145.39 1048.11,-141.11"/>
<polygon fill="black" stroke="black" points="1049.5,-143.75 1055.97,-137.47 1047,-138.35 1049.5,-143.75"/>
<text text-anchor="middle" x="1028.59" y="-160.08" font-family="Times New Roman,serif" font-size="14.00"> b </text>
</g>
<!-- 13&#45;&gt;1 -->
<g id="edge31" class="edge">
<title>13&#45;&gt;1</title>
<path fill="none" stroke="black" d="M1088.17,-116.61C1104.4,-101.21 1133.67,-78.28 1164.09,-78.28 1164.09,-78.28 1164.09,-78.28 1348.08,-78.28 1418.6,-78.28 1433.32,-187.67 1436.33,-239.56"/>
<polygon fill="black" stroke="black" points="1433.37,-239.91 1436.76,-248.25 1439.31,-239.61 1433.37,-239.91"/>
<text text-anchor="middle" x="1256.08" y="-82.08" font-family="Times New Roman,serif" font-size="14.00"> b </text>
</g>
<!-- 14 -->
<g id="node8" class="node">
<title>14</title>
<ellipse fill="none" stroke="black" cx="1165.09" cy="-162.28" rx="19.5" ry="19.5"/>
<text text-anchor="middle" x="1165.09" y="-158.58" font-family="Times New Roman,serif" font-size="14.00">14</text>
</g>
<!-- 13&#45;&gt;14 -->
<g id="edge30" class="edge">
<title>13&#45;&gt;14</title>
<path fill="none" stroke="black" d="M1092.67,-136.6C1105.72,-141.29 1123.7,-147.75 1138.36,-153.03"/>
<polygon fill="black" stroke="black" points="1137.54,-155.89 1146.54,-155.97 1139.55,-150.29 1137.54,-155.89"/>
<text text-anchor="middle" x="1119.59" y="-153.08" font-family="Times New Roman,serif" font-size="14.00"> a </text>
</g>
<!-- 14&#45;&gt;12 -->
<g id="edge32" class="edge">
<title>14&#45;&gt;12</title>
<path fill="none" stroke="black" d="M1145.54,-165.44C1139.79,-166.39 1133.43,-167.41 1127.59,-168.28 1087.22,-174.27 1040.31,-180.3 1011.41,-183.92"/>
<polygon fill="black" stroke="black" points="1010.76,-181 1002.7,-185 1011.5,-186.91 1010.76,-181"/>
<text text-anchor="middle" x="1074.09" y="-182.08" font-family="Times New Roman,serif" font-size="14.00"> a </text>
</g>
<!-- 15 -->
<g id="node9" class="node">
<title>15</title>
<ellipse fill="none" stroke="black" cx="1256.08" cy="-130.28" rx="19.5" ry="19.5"/>
<text text-anchor="middle" x="1256.08" y="-126.58" font-family="Times New Roman,serif" font-size="14.00">15</text>
</g>
<!-- 14&#45;&gt;15 -->
<g id="edge33" class="edge">
<title>14&#45;&gt;15</title>
<path fill="none" stroke="black" d="M1183.67,-155.95C1196.71,-151.26 1214.7,-144.8 1229.35,-139.53"/>
<polygon fill="black" stroke="black" points="1230.55,-142.26 1237.54,-136.59 1228.53,-136.66 1230.55,-142.26"/>
<text text-anchor="middle" x="1210.59" y="-153.08" font-family="Times New Roman,serif" font-size="14.00"> b </text>
</g>
<!-- 15&#45;&gt;16 -->
<g id="edge35" class="edge">
<title>15&#45;&gt;16</title>
<path fill="none" stroke="black" d="M1269.46,-115.4C1284.74,-97.03 1310.83,-65.66 1328.26,-44.7"/>
<polygon fill="black" stroke="black" points="1330.66,-46.47 1333.81,-38.03 1326.09,-42.66 1330.66,-46.47"/>
<text text-anchor="middle" x="1301.58" y="-91.08" font-family="Times New Roman,serif" font-size="14.00"> b </text>
</g>
<!-- 17 -->
<g id="node11" class="node">
<title>17</title>
<ellipse fill="none" stroke="black" cx="1347.08" cy="-181.28" rx="19.5" ry="19.5"/>
<text text-anchor="middle" x="1347.08" y="-177.58" font-family="Times New Roman,serif" font-size="14.00">17</text>
</g>
<!-- 15&#45;&gt;17 -->
<g id="edge34" class="edge">
<title>15&#45;&gt;17</title>
<path fill="none" stroke="black" d="M1274.43,-138.11C1284.82,-142.99 1298.18,-149.59 1309.58,-156.28 1314.17,-158.96 1318.94,-162.02 1323.46,-165.06"/>
<polygon fill="black" stroke="black" points="1322.07,-167.72 1330.76,-170.08 1325.44,-162.81 1322.07,-167.72"/>
<text text-anchor="middle" x="1301.58" y="-160.08" font-family="Times New Roman,serif" font-size="14.00"> a </text>
</g>
<!-- 18 -->
<g id="node12" class="node">
<title>18</title>
<ellipse fill="none" stroke="black" cx="1438.08" cy="-43.28" rx="19.5" ry="19.5"/>
<text text-anchor="middle" x="1438.08" y="-39.58" font-family="Times New Roman,serif" font-size="14.00">18</text>
</g>
<!-- 16&#45;&gt;18 -->
<g id="edge37" class="edge">
<title>16&#45;&gt;18</title>
<path fill="none" stroke="black" d="M1366.52,-27.42C1379.25,-30.28 1396.38,-34.13 1410.57,-37.32"/>
<polygon fill="black" stroke="black" points="1410.02,-40.25 1418.97,-39.21 1411.32,-34.44 1410.02,-40.25"/>
<text text-anchor="middle" x="1392.58" y="-39.08" font-family="Times New Roman,serif" font-size="14.00"> b </text>
</g>
<!-- 20 -->
<g id="node15" class="node">
<title>20</title>
<ellipse fill="none" stroke="black" cx="1618.07" cy="-31.28" rx="19.5" ry="19.5"/>
<text text-anchor="middle" x="1618.07" y="-27.58" font-family="Times New Roman,serif" font-size="14.00">20</text>
</g>
<!-- 16&#45;&gt;20 -->
<g id="edge36" class="edge">
<title>16&#45;&gt;20</title>
<path fill="none" stroke="black" d="M1366.59,-20.6C1380.78,-18.68 1400.87,-16.28 1418.58,-15.28 1480.09,-11.8 1552.15,-20.92 1590.27,-26.78"/>
<polygon fill="black" stroke="black" points="1589.9,-29.73 1598.76,-28.12 1590.82,-23.85 1589.9,-29.73"/>
<text text-anchor="middle" x="1482.58" y="-20.08" font-family="Times New Roman,serif" font-size="14.00"> a </text>
</g>
<!-- 17&#45;&gt;1 -->
<g id="edge38" class="edge">
<title>17&#45;&gt;1</title>
<path fill="none" stroke="black" d="M1366.76,-184.19C1377.62,-186.68 1391.01,-191.2 1400.58,-199.28 1413.49,-210.17 1422.59,-226.84 1428.48,-240.83"/>
<polygon fill="black" stroke="black" points="1425.86,-242.29 1431.74,-249.11 1431.4,-240.11 1425.86,-242.29"/>
<text text-anchor="middle" x="1392.58" y="-203.08" font-family="Times New Roman,serif" font-size="14.00"> a </text>
</g>
<!-- 17&#45;&gt;14 -->
<g id="edge39" class="edge">
<title>17&#45;&gt;14</title>
<path fill="none" stroke="black" d="M1327.46,-180.02C1300.05,-178.08 1247.25,-173.96 1202.59,-168.28 1199.56,-167.89 1196.41,-167.44 1193.27,-166.97"/>
<polygon fill="black" stroke="black" points="1193.48,-163.99 1184.62,-165.59 1192.54,-169.87 1193.48,-163.99"/>
<text text-anchor="middle" x="1256.08" y="-180.08" font-family="Times New Roman,serif" font-size="14.00"> b </text>
</g>
<!-- 18&#45;&gt;18 -->
<g id="edge41" class="edge">
<title>18&#45;&gt;18</title>
<path fill="none" stroke="black" d="M1430.22,-61.41C1428.76,-71.49 1431.37,-80.78 1438.08,-80.78 1442.79,-80.78 1445.48,-76.19 1446.16,-69.96"/>
<polygon fill="black" stroke="black" points="1449.13,-69.83 1445.93,-61.41 1443.18,-69.99 1449.13,-69.83"/>
<text text-anchor="middle" x="1438.08" y="-84.58" font-family="Times New Roman,serif" font-size="14.00"> b </text>
</g>
<!-- 19 -->
<g id="node13" class="node">
<title>19</title>
<ellipse fill="none" stroke="black" cx="1527.07" cy="-81.28" rx="19.5" ry="19.5"/>
<text text-anchor="middle" x="1527.07" y="-77.58" font-family="Times New Roman,serif" font-size="14.00">19</text>
</g>
<!-- 18&#45;&gt;19 -->
<g id="edge40" class="edge">
<title>18&#45;&gt;19</title>
<path fill="none" stroke="black" d="M1456.27,-50.78C1469.01,-56.35 1486.59,-64.03 1500.92,-70.29"/>
<polygon fill="black" stroke="black" points="1499.94,-73.11 1508.92,-73.78 1502.32,-67.66 1499.94,-73.11"/>
<text text-anchor="middle" x="1482.58" y="-69.08" font-family="Times New Roman,serif" font-size="14.00"> a </text>
</g>
<!-- 19&#45;&gt;20 -->
<g id="edge42" class="edge">
<title>19&#45;&gt;20</title>
<path fill="none" stroke="black" d="M1544.4,-72.11C1557.99,-64.47 1577.53,-53.49 1592.93,-44.84"/>
<polygon fill="black" stroke="black" points="1594.6,-47.32 1600.55,-40.56 1591.68,-42.13 1594.6,-47.32"/>
<text text-anchor="middle" x="1572.57" y="-65.08" font-family="Times New Roman,serif" font-size="14.00"> a </text>
</g>
<!-- 22 -->
<g id="node17" class="node">
<title>22</title>
<ellipse fill="none" stroke="black" cx="1802.06" cy="-71.28" rx="19.5" ry="19.5"/>
<ellipse fill="none" stroke="black" cx="1802.06" cy="-71.28" rx="23.5" ry="23.5"/>
<text text-anchor="middle" x="1802.06" y="-67.58" font-family="Times New Roman,serif" font-size="14.00">22</text>
</g>
<!-- 19&#45;&gt;22 -->
<g id="edge43" class="edge">
<title>19&#45;&gt;22</title>
<path fill="none" stroke="black" d="M1546.24,-84.9C1560.43,-87.54 1580.66,-90.89 1598.57,-92.28 1659.67,-97.01 1730.89,-85.7 1770.5,-77.91"/>
<polygon fill="black" stroke="black" points="1771.18,-80.8 1778.92,-76.21 1770,-74.97 1771.18,-80.8"/>
<text text-anchor="middle" x="1663.57" y="-97.08" font-family="Times New Roman,serif" font-size="14.00"> b </text>
</g>
<!-- 3 -->
<g id="node18" class="node">
<title>3</title>
<ellipse fill="none" stroke="black" cx="242.6" cy="-328.28" rx="18" ry="18"/>
<text text-anchor="middle" x="242.6" y="-324.58" font-family="Times New Roman,serif" font-size="14.00">3</text>
</g>
<!-- 2&#45;&gt;3 -->
<g id="edge3" class="edge">
<title>2&#45;&gt;3</title>
<path fill="none" stroke="#ffe600" stroke-width="2.5" d="M168.53,-343.7C181.98,-340.86 201,-336.85 216.27,-333.63"/>
<polygon fill="#ffe600" stroke="#ffe600" stroke-width="2.5" points="217.05,-336.5 224.75,-331.83 215.82,-330.68 217.05,-336.5"/>
<text text-anchor="middle" x="196.6" y="-359.08" font-family="Times New Roman,serif" font-size="14.00"> [2]</text>
<text text-anchor="middle" x="196.6" y="-344.08" font-family="Times New Roman,serif" font-size="14.00">a </text>
</g>
<!-- 2&#45;&gt;3 -->
<g id="edge16" class="edge">
<title>2&#45;&gt;3</title>
<path fill="none" stroke="black" d="M162.8,-334.01C169.06,-327.64 177.44,-320.66 186.6,-317.28 196.49,-313.62 207.85,-315.02 217.67,-317.86"/>
<polygon fill="black" stroke="black" points="216.83,-320.72 225.83,-320.63 218.74,-315.08 216.83,-320.72"/>
<text text-anchor="middle" x="196.6" y="-321.08" font-family="Times New Roman,serif" font-size="14.00"> b </text>
</g>
<!-- 20&#45;&gt;20 -->
<g id="edge44" class="edge">
<title>20&#45;&gt;20</title>
<path fill="none" stroke="black" d="M1610.22,-49.41C1608.75,-59.49 1611.37,-68.78 1618.07,-68.78 1622.78,-68.78 1625.48,-64.19 1626.15,-57.96"/>
<polygon fill="black" stroke="black" points="1629.12,-57.83 1625.93,-49.41 1623.18,-57.99 1629.12,-57.83"/>
<text text-anchor="middle" x="1618.07" y="-72.58" font-family="Times New Roman,serif" font-size="14.00"> a </text>
</g>
<!-- 21 -->
<g id="node16" class="node">
<title>21</title>
<ellipse fill="none" stroke="black" cx="1709.07" cy="-31.28" rx="19.5" ry="19.5"/>
<text text-anchor="middle" x="1709.07" y="-27.58" font-family="Times New Roman,serif" font-size="14.00">21</text>
</g>
<!-- 20&#45;&gt;21 -->
<g id="edge45" class="edge">
<title>20&#45;&gt;21</title>
<path fill="none" stroke="black" d="M1637.94,-31.28C1650.42,-31.28 1666.96,-31.28 1680.85,-31.28"/>
<polygon fill="black" stroke="black" points="1681.03,-34.25 1689.53,-31.28 1681.03,-28.3 1681.03,-34.25"/>
<text text-anchor="middle" x="1663.57" y="-35.08" font-family="Times New Roman,serif" font-size="14.00"> b </text>
</g>
<!-- 21&#45;&gt;18 -->
<g id="edge47" class="edge">
<title>21&#45;&gt;18</title>
<path fill="none" stroke="black" d="M1691.52,-22.62C1677.56,-15.84 1656.84,-6.96 1637.57,-3.28 1574.98,8.7 1501.49,-16.35 1463.93,-31.98"/>
<polygon fill="black" stroke="black" points="1462.7,-29.28 1456.05,-35.35 1465.03,-34.75 1462.7,-29.28"/>
<text text-anchor="middle" x="1572.57" y="-7.08" font-family="Times New Roman,serif" font-size="14.00"> b </text>
</g>
<!-- 21&#45;&gt;22 -->
<g id="edge46" class="edge">
<title>21&#45;&gt;22</title>
<path fill="none" stroke="black" d="M1727.18,-38.8C1739.87,-44.38 1757.45,-52.11 1772.28,-58.63"/>
<polygon fill="black" stroke="black" points="1771.21,-61.4 1780.19,-62.1 1773.61,-55.96 1771.21,-61.4"/>
<text text-anchor="middle" x="1753.57" y="-57.08" font-family="Times New Roman,serif" font-size="14.00"> a </text>
</g>
<!-- 22&#45;&gt;22 -->
<g id="edge48" class="edge">
<title>22&#45;&gt;22</title>
<path fill="none" stroke="black" d="M1797.6,-94.74C1797.3,-104.5 1798.78,-112.78 1802.06,-112.78 1804.32,-112.78 1805.73,-108.86 1806.29,-103.25"/>
<polygon fill="black" stroke="black" points="1809.26,-103.32 1806.52,-94.74 1803.31,-103.15 1809.26,-103.32"/>
<text text-anchor="middle" x="1802.06" y="-116.58" font-family="Times New Roman,serif" font-size="14.00"> a </text>
</g>
<!-- 22&#45;&gt;22 -->
<g id="edge49" class="edge">
<title>22&#45;&gt;22</title>
<path fill="none" stroke="black" d="M1794.38,-93.56C1791.21,-111.81 1793.77,-130.78 1802.06,-130.78 1809.06,-130.78 1811.98,-117.28 1810.81,-102.09"/>
<polygon fill="black" stroke="black" points="1813.75,-101.62 1809.74,-93.56 1807.85,-102.36 1813.75,-101.62"/>
<text text-anchor="middle" x="1802.06" y="-134.58" font-family="Times New Roman,serif" font-size="14.00"> b </text>
</g>
<!-- 3&#45;&gt;1 -->
<g id="edge17" class="edge">
<title>3&#45;&gt;1</title>
<path fill="none" stroke="black" d="M259.11,-335.94C276.72,-343.92 306.52,-355.28 333.6,-355.28 333.6,-355.28 333.6,-355.28 1348.08,-355.28 1384.91,-355.28 1411.83,-316.69 1425.91,-290.33"/>
<polygon fill="black" stroke="black" points="1428.65,-291.52 1429.87,-282.6 1423.35,-288.81 1428.65,-291.52"/>
<text text-anchor="middle" x="850.6" y="-359.08" font-family="Times New Roman,serif" font-size="14.00"> a </text>
</g>
<!-- 4 -->
<g id="node19" class="node">
<title>4</title>
<ellipse fill="none" stroke="black" cx="334.6" cy="-213.28" rx="18" ry="18"/>
<text text-anchor="middle" x="334.6" y="-209.58" font-family="Times New Roman,serif" font-size="14.00">4</text>
</g>
<!-- 3&#45;&gt;4 -->
<g id="edge4" class="edge">
<title>3&#45;&gt;4</title>
<path fill="none" stroke="#ffcc00" stroke-width="2.5" d="M254.64,-314.18C270.37,-294.06 299.37,-257.02 317.5,-233.85"/>
<polygon fill="#ffcc00" stroke="#ffcc00" stroke-width="2.5" points="319.86,-235.66 322.76,-227.13 315.17,-231.99 319.86,-235.66"/>
<text text-anchor="middle" x="288.6" y="-300.08" font-family="Times New Roman,serif" font-size="14.00"> [3]</text>
<text text-anchor="middle" x="288.6" y="-285.08" font-family="Times New Roman,serif" font-size="14.00">b </text>
</g>
<!-- 4&#45;&gt;4 -->
<g id="edge5" class="edge">
<title>4&#45;&gt;4</title>
<path fill="none" stroke="#ffb300" stroke-width="2.5" d="M330.47,-231.06C329.76,-240.59 331.14,-249.28 334.6,-249.28 336.92,-249.28 338.31,-245.36 338.75,-239.89"/>
<polygon fill="#ffb300" stroke="#ffb300" stroke-width="2.5" points="341.73,-239.55 338.73,-231.06 335.78,-239.57 341.73,-239.55"/>
<text text-anchor="middle" x="334.6" y="-268.08" font-family="Times New Roman,serif" font-size="14.00"> [4]</text>
<text text-anchor="middle" x="334.6" y="-253.08" font-family="Times New Roman,serif" font-size="14.00">b </text>
</g>
<!-- 4&#45;&gt;4 -->
<g id="edge6" class="edge">
<title>4&#45;&gt;4</title>
<path fill="none" stroke="#ff9900" stroke-width="2.5" d="M328.34,-230.2C323.75,-251.43 325.84,-279.28 334.6,-279.28 342.23,-279.28 344.8,-258.14 342.3,-238.66"/>
<polygon fill="#ff9900" stroke="#ff9900" stroke-width="2.5" points="345.22,-238.08 340.86,-230.2 339.36,-239.08 345.22,-238.08"/>
<text text-anchor="middle" x="334.6" y="-298.08" font-family="Times New Roman,serif" font-size="14.00"> [5]</text>
<text text-anchor="middle" x="334.6" y="-283.08" font-family="Times New Roman,serif" font-size="14.00">b </text>
</g>
<!-- 5 -->
<g id="node20" class="node">
<title>5</title>
<ellipse fill="none" stroke="black" cx="426.6" cy="-213.28" rx="18" ry="18"/>
<text text-anchor="middle" x="426.6" y="-209.58" font-family="Times New Roman,serif" font-size="14.00">5</text>
</g>
<!-- 4&#45;&gt;5 -->
<g id="edge7" class="edge">
<title>4&#45;&gt;5</title>
<path fill="none" stroke="#ff8000" stroke-width="2.5" d="M352.95,-213.28C366.15,-213.28 384.53,-213.28 399.5,-213.28"/>
<polygon fill="#ff8000" stroke="#ff8000" stroke-width="2.5" points="399.8,-216.25 408.3,-213.28 399.8,-210.3 399.8,-216.25"/>
<text text-anchor="middle" x="380.6" y="-232.08" font-family="Times New Roman,serif" font-size="14.00"> [6]</text>
<text text-anchor="middle" x="380.6" y="-217.08" font-family="Times New Roman,serif" font-size="14.00">a </text>
</g>
<!-- 5&#45;&gt;5 -->
<g id="edge8" class="edge">
<title>5&#45;&gt;5</title>
<path fill="none" stroke="#ff6600" stroke-width="2.5" d="M422.47,-231.06C421.76,-240.59 423.14,-249.28 426.6,-249.28 428.92,-249.28 430.31,-245.36 430.75,-239.89"/>
<polygon fill="#ff6600" stroke="#ff6600" stroke-width="2.5" points="433.73,-239.55 430.73,-231.06 427.78,-239.57 433.73,-239.55"/>
<text text-anchor="middle" x="426.6" y="-268.08" font-family="Times New Roman,serif" font-size="14.00"> [7]</text>
<text text-anchor="middle" x="426.6" y="-253.08" font-family="Times New Roman,serif" font-size="14.00">a </text>
</g>
<!-- 5&#45;&gt;5 -->
<g id="edge9" class="edge">
<title>5&#45;&gt;5</title>
<path fill="none" stroke="#ff4c00" stroke-width="2.5" d="M420.34,-230.2C415.75,-251.43 417.84,-279.28 426.6,-279.28 434.23,-279.28 436.8,-258.14 434.3,-238.66"/>
<polygon fill="#ff4c00" stroke="#ff4c00" stroke-width="2.5" points="437.22,-238.08 432.86,-230.2 431.36,-239.08 437.22,-238.08"/>
<text text-anchor="middle" x="426.6" y="-298.08" font-family="Times New Roman,serif" font-size="14.00"> [8]</text>
<text text-anchor="middle" x="426.6" y="-283.08" font-family="Times New Roman,serif" font-size="14.00">a </text>
</g>
<!-- 6 -->
<g id="node21" class="node">
<title>6</title>
<ellipse fill="none" stroke="black" cx="518.6" cy="-213.28" rx="18" ry="18"/>
<text text-anchor="middle" x="518.6" y="-209.58" font-family="Times New Roman,serif" font-size="14.00">6</text>
</g>
<!-- 5&#45;&gt;6 -->
<g id="edge10" class="edge">
<title>5&#45;&gt;6</title>
<path fill="none" stroke="#ff3300" stroke-width="2.5" d="M444.95,-213.28C458.15,-213.28 476.53,-213.28 491.5,-213.28"/>
<polygon fill="#ff3300" stroke="#ff3300" stroke-width="2.5" points="491.8,-216.25 500.3,-213.28 491.8,-210.3 491.8,-216.25"/>
<text text-anchor="middle" x="472.6" y="-232.08" font-family="Times New Roman,serif" font-size="14.00"> [9]</text>
<text text-anchor="middle" x="472.6" y="-217.08" font-family="Times New Roman,serif" font-size="14.00">b </text>
</g>
<!-- 6&#45;&gt;7 -->
<g id="edge18" class="edge">
<title>6&#45;&gt;7</title>
<path fill="none" stroke="black" d="M536.33,-209.66C555.59,-205.81 588.23,-200.28 616.6,-200.28 616.6,-200.28 616.6,-200.28 807.1,-200.28 827.16,-200.28 849.84,-199.16 866.8,-198.11"/>
<polygon fill="black" stroke="black" points="867.29,-201.06 875.57,-197.54 866.9,-195.12 867.29,-201.06"/>
<text text-anchor="middle" x="716.6" y="-204.08" font-family="Times New Roman,serif" font-size="14.00"> a </text>
</g>
<!-- 8 -->
<g id="node23" class="node">
<title>8</title>
<ellipse fill="none" stroke="black" cx="617.6" cy="-249.28" rx="18" ry="18"/>
<text text-anchor="middle" x="617.6" y="-245.58" font-family="Times New Roman,serif" font-size="14.00">8</text>
</g>
<!-- 6&#45;&gt;8 -->
<g id="edge11" class="edge">
<title>6&#45;&gt;8</title>
<path fill="none" stroke="#ff1900" stroke-width="2.5" d="M535.62,-219.22C551.06,-224.95 574.64,-233.7 592.38,-240.29"/>
<polygon fill="#ff1900" stroke="#ff1900" stroke-width="2.5" points="591.55,-243.15 600.56,-243.32 593.62,-237.58 591.55,-243.15"/>
<text text-anchor="middle" x="568.1" y="-255.08" font-family="Times New Roman,serif" font-size="14.00"> [10]</text>
<text text-anchor="middle" x="568.1" y="-240.08" font-family="Times New Roman,serif" font-size="14.00">b </text>
</g>
<!-- 7&#45;&gt;11 -->
<g id="edge20" class="edge">
<title>7&#45;&gt;11</title>
<path fill="none" stroke="black" d="M897.39,-178.5C901.25,-160.63 910.08,-133.97 929.6,-121.28 936.97,-116.48 946.24,-115.16 954.94,-115.37"/>
<polygon fill="black" stroke="black" points="954.97,-118.36 963.68,-116.07 955.44,-112.43 954.97,-118.36"/>
<text text-anchor="middle" x="937.6" y="-125.08" font-family="Times New Roman,serif" font-size="14.00"> b </text>
</g>
<!-- 7&#45;&gt;12 -->
<g id="edge19" class="edge">
<title>7&#45;&gt;12</title>
<path fill="none" stroke="black" d="M911.88,-194.5C924.14,-193.24 940.83,-191.52 954.87,-190.08"/>
<polygon fill="black" stroke="black" points="955.48,-193 963.64,-189.18 954.88,-187.09 955.48,-193"/>
<text text-anchor="middle" x="937.6" y="-197.08" font-family="Times New Roman,serif" font-size="14.00"> a </text>
</g>
<!-- 8&#45;&gt;8 -->
<g id="edge21" class="edge">
<title>8&#45;&gt;8</title>
<path fill="none" stroke="black" d="M609.24,-265.57C607.22,-275.67 610.01,-285.28 617.6,-285.28 622.94,-285.28 625.9,-280.53 626.49,-274.19"/>
<polygon fill="black" stroke="black" points="629.45,-273.87 625.96,-265.57 623.51,-274.23 629.45,-273.87"/>
<text text-anchor="middle" x="617.6" y="-289.08" font-family="Times New Roman,serif" font-size="14.00"> b </text>
</g>
<!-- 9 -->
<g id="node24" class="node">
<title>9</title>
<ellipse fill="none" stroke="black" cx="716.6" cy="-258.28" rx="18" ry="18"/>
<text text-anchor="middle" x="716.6" y="-254.58" font-family="Times New Roman,serif" font-size="14.00">9</text>
</g>
<!-- 8&#45;&gt;9 -->
<g id="edge12" class="edge">
<title>8&#45;&gt;9</title>
<path fill="none" stroke="#ff0000" stroke-width="2.5" d="M635.94,-250.89C650.84,-252.27 672.54,-254.28 689.53,-255.86"/>
<polygon fill="#ff0000" stroke="#ff0000" stroke-width="2.5" points="689.67,-258.86 698.41,-256.68 690.22,-252.93 689.67,-258.86"/>
<text text-anchor="middle" x="667.1" y="-274.08" font-family="Times New Roman,serif" font-size="14.00"> [11]</text>
<text text-anchor="middle" x="667.1" y="-259.08" font-family="Times New Roman,serif" font-size="14.00">a </text>
</g>
<!-- 9&#45;&gt;1 -->
<g id="edge22" class="edge">
<title>9&#45;&gt;1</title>
<path fill="none" stroke="black" d="M729.22,-271.35C744.78,-287.33 774.04,-312.28 805.1,-312.28 805.1,-312.28 805.1,-312.28 1348.08,-312.28 1374.26,-312.28 1400.41,-296.38 1417.53,-283.27"/>
<polygon fill="black" stroke="black" points="1419.49,-285.51 1424.28,-277.88 1415.78,-280.86 1419.49,-285.51"/>
<text text-anchor="middle" x="1074.09" y="-316.08" font-family="Times New Roman,serif" font-size="14.00"> a </text>
</g>
<!-- 9&#45;&gt;10 -->
<g id="edge23" class="edge">
<title>9&#45;&gt;10</title>
<path fill="none" stroke="black" d="M734.89,-258.28C747.06,-258.28 763.62,-258.28 777.59,-258.28"/>
<polygon fill="black" stroke="black" points="777.83,-261.25 786.33,-258.28 777.83,-255.3 777.83,-261.25"/>
<text text-anchor="middle" x="760.6" y="-262.08" font-family="Times New Roman,serif" font-size="14.00"> b </text>
</g>
</g>
</svg>
