<?xml version="1.0" encoding="UTF-8" standalone="no"?>
<!DOCTYPE svg PUBLIC "-//W3C//DTD SVG 1.1//EN"
 "http://www.w3.org/Graphics/SVG/1.1/DTD/svg11.dtd">
<!-- Generated by graphviz version 2.47.3 (20210619.1520)
 -->
<!-- Pages: 1 -->
<svg width="576pt" height="119pt"
 viewBox="0.00 0.00 576.00 118.96" xmlns="http://www.w3.org/2000/svg" xmlns:xlink="http://www.w3.org/1999/xlink">
<g id="graph0" class="graph" transform="scale(0.71 0.71) rotate(0) translate(4 163)">
<polygon fill="white" stroke="transparent" points="-4,4 -4,-163 804.6,-163 804.6,4 -4,4"/>
<!-- Initial -->
<g id="node1" class="node">
<title>Initial</title>
<ellipse fill="black" stroke="black" cx="1.8" cy="-61" rx="1.8" ry="1.8"/>
</g>
<!-- 0 -->
<g id="node2" class="node">
<title>0</title>
<ellipse fill="none" stroke="black" cx="58.6" cy="-61" rx="18" ry="18"/>
<text text-anchor="middle" x="58.6" y="-57.3" font-family="Times New Roman,serif" font-size="14.00">0</text>
</g>
<!-- Initial&#45;&gt;0 -->
<g id="edge1" class="edge">
<title>Initial&#45;&gt;0</title>
<path fill="none" stroke="black" d="M3.75,-61C7.25,-61 19.84,-61 31.96,-61"/>
<polygon fill="black" stroke="black" points="32.08,-63.98 40.58,-61 32.08,-58.03 32.08,-63.98"/>
</g>
<!-- 1 -->
<g id="node3" class="node">
<title>1</title>
<ellipse fill="none" stroke="black" cx="150.6" cy="-96" rx="18" ry="18"/>
<text text-anchor="middle" x="150.6" y="-92.3" font-family="Times New Roman,serif" font-size="14.00">1</text>
</g>
<!-- 0&#45;&gt;1 -->
<g id="edge2" class="edge">
<title>0&#45;&gt;1</title>
<path fill="none" stroke="#ffff00" stroke-width="2.5" d="M75.69,-67.26C89.51,-72.63 109.64,-80.46 125.41,-86.59"/>
<polygon fill="#ffff00" stroke="#ffff00" stroke-width="2.5" points="124.65,-89.49 133.65,-89.8 126.81,-83.94 124.65,-89.49"/>
<text text-anchor="middle" x="104.6" y="-99.8" font-family="Times New Roman,serif" font-size="14.00"> [1]</text>
<text text-anchor="middle" x="104.6" y="-84.8" font-family="Times New Roman,serif" font-size="14.00">0 </text>
</g>
<!-- 6 -->
<g id="node8" class="node">
<title>6</title>
<ellipse fill="none" stroke="black" cx="242.6" cy="-58" rx="18" ry="18"/>
<text text-anchor="middle" x="242.6" y="-54.3" font-family="Times New Roman,serif" font-size="14.00">6</text>
</g>
<!-- 0&#45;&gt;6 -->
<g id="edge6" class="edge">
<title>0&#45;&gt;6</title>
<path fill="none" stroke="black" d="M76.68,-58.9C91.45,-57.19 113.4,-54.92 132.6,-54 161.19,-52.63 194.03,-54.27 216.12,-55.85"/>
<polygon fill="black" stroke="black" points="215.9,-58.82 224.6,-56.49 216.35,-52.88 215.9,-58.82"/>
<text text-anchor="middle" x="150.6" y="-57.8" font-family="Times New Roman,serif" font-size="14.00"> 1 </text>
</g>
<!-- 2 -->
<g id="node4" class="node">
<title>2</title>
<ellipse fill="none" stroke="black" cx="513.6" cy="-54" rx="18" ry="18"/>
<text text-anchor="middle" x="513.6" y="-50.3" font-family="Times New Roman,serif" font-size="14.00">2</text>
</g>
<!-- 1&#45;&gt;2 -->
<g id="edge7" class="edge">
<title>1&#45;&gt;2</title>
<path fill="none" stroke="black" d="M167.11,-103.66C184.72,-111.65 214.52,-123 241.6,-123 241.6,-123 241.6,-123 427.6,-123 457.9,-123 483.43,-96.24 498.37,-76.05"/>
<polygon fill="black" stroke="black" points="500.9,-77.63 503.39,-68.97 496.05,-74.19 500.9,-77.63"/>
<text text-anchor="middle" x="334.6" y="-126.8" font-family="Times New Roman,serif" font-size="14.00"> 0 </text>
</g>
<!-- 1&#45;&gt;6 -->
<g id="edge3" class="edge">
<title>1&#45;&gt;6</title>
<path fill="none" stroke="#ffaa00" stroke-width="2.5" d="M167.15,-88.09C173.17,-85.12 180.15,-81.79 186.6,-79 196.47,-74.73 207.51,-70.42 217.1,-66.83"/>
<polygon fill="#ffaa00" stroke="#ffaa00" stroke-width="2.5" points="218.14,-69.62 225.08,-63.88 216.08,-64.04 218.14,-69.62"/>
<text text-anchor="middle" x="196.6" y="-97.8" font-family="Times New Roman,serif" font-size="14.00"> [2]</text>
<text text-anchor="middle" x="196.6" y="-82.8" font-family="Times New Roman,serif" font-size="14.00">1 </text>
</g>
<!-- 2&#45;&gt;2 -->
<g id="edge9" class="edge">
<title>2&#45;&gt;2</title>
<path fill="none" stroke="black" d="M506.22,-70.66C504.58,-80.62 507.04,-90 513.6,-90 518.11,-90 520.68,-85.57 521.32,-79.56"/>
<polygon fill="black" stroke="black" points="524.28,-79.05 520.98,-70.66 518.33,-79.27 524.28,-79.05"/>
<text text-anchor="middle" x="513.6" y="-93.8" font-family="Times New Roman,serif" font-size="14.00"> 1 </text>
</g>
<!-- 3 -->
<g id="node5" class="node">
<title>3</title>
<ellipse fill="none" stroke="black" cx="600.6" cy="-54" rx="18" ry="18"/>
<text text-anchor="middle" x="600.6" y="-50.3" font-family="Times New Roman,serif" font-size="14.00">3</text>
</g>
<!-- 2&#45;&gt;3 -->
<g id="edge8" class="edge">
<title>2&#45;&gt;3</title>
<path fill="none" stroke="black" d="M531.8,-54C543.78,-54 559.98,-54 573.54,-54"/>
<polygon fill="black" stroke="black" points="573.92,-56.98 582.42,-54 573.92,-51.03 573.92,-56.98"/>
<text text-anchor="middle" x="557.1" y="-57.8" font-family="Times New Roman,serif" font-size="14.00"> 0 </text>
</g>
<!-- 4 -->
<g id="node6" class="node">
<title>4</title>
<ellipse fill="none" stroke="black" cx="687.6" cy="-89" rx="18" ry="18"/>
<text text-anchor="middle" x="687.6" y="-85.3" font-family="Times New Roman,serif" font-size="14.00">4</text>
</g>
<!-- 3&#45;&gt;4 -->
<g id="edge10" class="edge">
<title>3&#45;&gt;4</title>
<path fill="none" stroke="black" d="M617.59,-60.58C630.29,-65.81 648.26,-73.21 662.67,-79.15"/>
<polygon fill="black" stroke="black" points="661.69,-81.96 670.68,-82.45 663.96,-76.46 661.69,-81.96"/>
<text text-anchor="middle" x="644.1" y="-76.8" font-family="Times New Roman,serif" font-size="14.00"> 0 </text>
</g>
<!-- 5 -->
<g id="node7" class="node">
<title>5</title>
<ellipse fill="none" stroke="black" cx="778.6" cy="-71" rx="18" ry="18"/>
<ellipse fill="none" stroke="black" cx="778.6" cy="-71" rx="22" ry="22"/>
<text text-anchor="middle" x="778.6" y="-67.3" font-family="Times New Roman,serif" font-size="14.00">5</text>
</g>
<!-- 3&#45;&gt;5 -->
<g id="edge11" class="edge">
<title>3&#45;&gt;5</title>
<path fill="none" stroke="black" d="M618.28,-50.56C638.91,-46.83 675.05,-42.04 705.6,-47 720.64,-49.44 736.79,-54.58 749.97,-59.47"/>
<polygon fill="black" stroke="black" points="749.17,-62.35 758.17,-62.62 751.3,-56.79 749.17,-62.35"/>
<text text-anchor="middle" x="687.6" y="-50.8" font-family="Times New Roman,serif" font-size="14.00"> 1 </text>
</g>
<!-- 4&#45;&gt;5 -->
<g id="edge12" class="edge">
<title>4&#45;&gt;5</title>
<path fill="none" stroke="black" d="M705.91,-89.78C715.63,-89.85 727.9,-89.33 738.6,-87 742.59,-86.13 746.7,-84.88 750.67,-83.45"/>
<polygon fill="black" stroke="black" points="751.76,-86.22 758.59,-80.35 749.59,-80.68 751.76,-86.22"/>
<text text-anchor="middle" x="731.1" y="-92.8" font-family="Times New Roman,serif" font-size="14.00"> 0 </text>
</g>
<!-- 4&#45;&gt;5 -->
<g id="edge13" class="edge">
<title>4&#45;&gt;5</title>
<path fill="none" stroke="black" d="M702.44,-78.33C708.57,-74.25 716.09,-70.08 723.6,-68 731.44,-65.83 740.16,-65.47 748.27,-65.95"/>
<polygon fill="black" stroke="black" points="748.01,-68.91 756.75,-66.75 748.57,-62.99 748.01,-68.91"/>
<text text-anchor="middle" x="731.1" y="-71.8" font-family="Times New Roman,serif" font-size="14.00"> 1 </text>
</g>
<!-- 5&#45;&gt;5 -->
<g id="edge14" class="edge">
<title>5&#45;&gt;5</title>
<path fill="none" stroke="black" d="M774.35,-92.81C773.95,-102.56 775.37,-111 778.6,-111 780.82,-111 782.19,-107.01 782.69,-101.35"/>
<polygon fill="black" stroke="black" points="785.67,-101.36 782.85,-92.81 779.72,-101.25 785.67,-101.36"/>
<text text-anchor="middle" x="778.6" y="-114.8" font-family="Times New Roman,serif" font-size="14.00"> 0 </text>
</g>
<!-- 5&#45;&gt;5 -->
<g id="edge15" class="edge">
<title>5&#45;&gt;5</title>
<path fill="none" stroke="black" d="M771.4,-91.81C768.11,-109.88 770.51,-129 778.6,-129 785.42,-129 788.2,-115.39 786.92,-100.28"/>
<polygon fill="black" stroke="black" points="789.87,-99.85 785.8,-91.81 783.97,-100.63 789.87,-99.85"/>
<text text-anchor="middle" x="778.6" y="-132.8" font-family="Times New Roman,serif" font-size="14.00"> 1 </text>
</g>
<!-- 7 -->
<g id="node9" class="node">
<title>7</title>
<ellipse fill="none" stroke="black" cx="426.6" cy="-63" rx="18" ry="18"/>
<text text-anchor="middle" x="426.6" y="-59.3" font-family="Times New Roman,serif" font-size="14.00">7</text>
</g>
<!-- 6&#45;&gt;7 -->
<g id="edge16" class="edge">
<title>6&#45;&gt;7</title>
<path fill="none" stroke="black" d="M260.72,-58.47C292.7,-59.35 361.67,-61.24 399.49,-62.28"/>
<polygon fill="black" stroke="black" points="399.81,-65.27 408.39,-62.53 399.98,-59.32 399.81,-65.27"/>
<text text-anchor="middle" x="334.6" y="-63.8" font-family="Times New Roman,serif" font-size="14.00"> 0 </text>
</g>
<!-- 8 -->
<g id="node10" class="node">
<title>8</title>
<ellipse fill="none" stroke="black" cx="334.6" cy="-18" rx="18" ry="18"/>
<text text-anchor="middle" x="334.6" y="-14.3" font-family="Times New Roman,serif" font-size="14.00">8</text>
</g>
<!-- 6&#45;&gt;8 -->
<g id="edge4" class="edge">
<title>6&#45;&gt;8</title>
<path fill="none" stroke="#ff5500" stroke-width="2.5" d="M255.4,-45.09C261.7,-38.98 269.93,-32.13 278.6,-28 287.63,-23.7 298.31,-21.24 307.84,-19.84"/>
<polygon fill="#ff5500" stroke="#ff5500" stroke-width="2.5" points="308.45,-22.76 316.53,-18.79 307.74,-16.86 308.45,-22.76"/>
<text text-anchor="middle" x="288.6" y="-46.8" font-family="Times New Roman,serif" font-size="14.00"> [3]</text>
<text text-anchor="middle" x="288.6" y="-31.8" font-family="Times New Roman,serif" font-size="14.00">1 </text>
</g>
<!-- 7&#45;&gt;2 -->
<g id="edge17" class="edge">
<title>7&#45;&gt;2</title>
<path fill="none" stroke="black" d="M444.8,-61.18C456.9,-59.9 473.3,-58.16 486.93,-56.72"/>
<polygon fill="black" stroke="black" points="487.29,-59.67 495.42,-55.82 486.66,-53.76 487.29,-59.67"/>
<text text-anchor="middle" x="470.1" y="-62.8" font-family="Times New Roman,serif" font-size="14.00"> 0 </text>
</g>
<!-- 7&#45;&gt;2 -->
<g id="edge18" class="edge">
<title>7&#45;&gt;2</title>
<path fill="none" stroke="black" d="M440.55,-51.33C446.76,-46.52 454.58,-41.49 462.6,-39 471.43,-36.26 481.16,-38.09 489.67,-41.28"/>
<polygon fill="black" stroke="black" points="488.72,-44.11 497.7,-44.8 491.11,-38.66 488.72,-44.11"/>
<text text-anchor="middle" x="470.1" y="-42.8" font-family="Times New Roman,serif" font-size="14.00"> 1 </text>
</g>
<!-- 8&#45;&gt;2 -->
<g id="edge19" class="edge">
<title>8&#45;&gt;2</title>
<path fill="none" stroke="black" d="M352.94,-17.75C363.77,-17.66 378,-17.65 390.6,-18 414.63,-18.67 421.12,-15.86 444.6,-21 460,-24.37 463.39,-27.18 477.6,-34 481.75,-35.99 486.08,-38.28 490.23,-40.58"/>
<polygon fill="black" stroke="black" points="489.01,-43.32 497.87,-44.95 491.96,-38.15 489.01,-43.32"/>
<text text-anchor="middle" x="426.6" y="-24.8" font-family="Times New Roman,serif" font-size="14.00"> 1 </text>
</g>
<!-- 8&#45;&gt;7 -->
<g id="edge5" class="edge">
<title>8&#45;&gt;7</title>
<path fill="none" stroke="#ff0000" stroke-width="2.5" d="M352.82,-18.49C364.12,-19.43 378.91,-21.87 390.6,-28 397.49,-31.61 403.89,-37.05 409.28,-42.57"/>
<polygon fill="#ff0000" stroke="#ff0000" stroke-width="2.5" points="407.19,-44.69 415.11,-48.98 411.59,-40.69 407.19,-44.69"/>
<text text-anchor="middle" x="380.6" y="-46.8" font-family="Times New Roman,serif" font-size="14.00"> [4]</text>
<text text-anchor="middle" x="380.6" y="-31.8" font-family="Times New Roman,serif" font-size="14.00">0 </text>
</g>
</g>
</svg>
